<?xml version="1.0" encoding="utf-8"?>
<!-- Generator: Adobe Illustrator 25.0.0, SVG Export Plug-In . SVG Version: 6.00 Build 0)  -->
<svg version="1.1" id="Calque_1" xmlns="http://www.w3.org/2000/svg" xmlns:xlink="http://www.w3.org/1999/xlink" x="0px" y="0px"
	 viewBox="0 0 500 500" style="enable-background:new 0 0 500 500;" xml:space="preserve">
<style type="text/css">
	.st0{fill:#BF5A36;}
	.st1{clip-path:url(#SVGID_2_);}
	.st2{clip-path:url(#SVGID_4_);}
</style>
<g id="_x38_80255a294">
	<path class="st0" d="M220.4,272.3c1.1,0,2-0.6,2.5-1.6c0.9-1.8,0.2-4.5-1.5-5.9c-0.7-0.6-1.6-1-2.4-1c-1.1,0-2,0.6-2.5,1.6
		c-0.9,1.8-0.2,4.5,1.5,5.9C218.7,271.9,219.6,272.3,220.4,272.3z"/>
	<path class="st0" d="M205.2,263.8c-0.8,0-1.7,0.3-2.4,1c-1.7,1.5-2.4,4.1-1.5,5.9c0.5,1,1.4,1.6,2.5,1.6c0.8,0,1.7-0.3,2.4-1
		c1.7-1.5,2.4-4.1,1.5-5.9C207.2,264.3,206.3,263.8,205.2,263.8z"/>
	<path class="st0" d="M258.6,208.1c1.8,0.5,7.7,4.8,12,8.6c0.6,0.5,1.4,0.8,2.2,0.8c1,0,1.9-0.4,2.6-1.2c1.2-1.4,1-3.5-0.4-4.8
		c-0.6-0.5-2.8-2.4-5.4-4.4c-5.6-4.3-7.9-5.2-9.2-5.6l-0.1,0c-4.5-1.1-11.6-0.3-20.8,2.2c-6.8,1.9-12.2,4-12.2,4.1
		c-0.8,0.3-1.5,1-1.8,1.8c-0.4,0.8-0.4,1.7,0,2.6c0.5,1.3,1.7,2.1,3.1,2.1c0.4,0,0.8-0.1,1.2-0.2c4.5-1.8,17.8-6.3,25.8-6.3
		C256.7,207.8,257.7,207.9,258.6,208.1z"/>
	<path class="st0" d="M151.5,217.5c0.8,0,1.6-0.3,2.2-0.8c4.4-3.7,10.2-8,12-8.6c0.9-0.2,1.9-0.3,3.1-0.3c8,0,21.4,4.6,25.8,6.3
		c0.4,0.2,0.8,0.2,1.2,0.2c1.4,0,2.6-0.8,3.1-2.1c0.3-0.8,0.3-1.7,0-2.6c-0.4-0.8-1-1.5-1.8-1.8c-0.2-0.1-5.5-2.2-12.2-4.1
		c-9.2-2.6-16.3-3.3-20.8-2.2l-0.1,0c-1.2,0.3-3.6,1.3-9.2,5.6c-2.6,2-4.8,3.8-5.5,4.4c-1.4,1.2-1.6,3.3-0.4,4.7
		C149.6,217,150.5,217.5,151.5,217.5z"/>
	<path class="st0" d="M163.4,242.4c2.5,1.2,6.8,2.7,13.1,2.9c0.2,0,0.4,0,0.7,0c11.1,0,20.5-6.3,20.9-6.5c0.7-0.5,1.2-1.3,1.4-2.2
		c0.2-0.9,0-1.8-0.5-2.5c-0.6-0.9-1.7-1.5-2.8-1.5c-0.7,0-1.3,0.2-1.9,0.6c-0.3,0.2-8.1,5.4-17.1,5.4c-0.2,0-0.3,0-0.5,0
		c-8.4-0.2-12.4-3.3-13-4.1c-0.6-1.1-1.7-1.9-3-1.9c-0.5,0-0.9,0.1-1.3,0.3c-1.7,0.7-2.5,2.7-1.8,4.4
		C158.2,239,160.4,240.9,163.4,242.4z"/>
	<path class="st0" d="M253.7,125.2c0.5-0.7,0.7-1.6,0.6-2.5c-0.1-0.9-0.6-1.7-1.3-2.2c-0.6-0.4-1.3-0.6-2-0.6
		c-1.1,0-2.1,0.5-2.7,1.4c-15.3,21.2-34.4,26.4-52.9,31.5c-13,3.5-26.4,7.2-38.1,16.3c-6.3,4.9-11.7,10.9-16.3,18.4
		c-5.1,8.3-9.2,18.1-12.5,30.1c-0.2,0.9-0.1,1.8,0.3,2.5c0.4,0.8,1.2,1.3,2,1.6c0.3,0.1,0.6,0.1,0.9,0.1c1.5,0,2.8-1,3.2-2.5
		c12.9-46.7,36.8-53.2,62.2-60.1c9.6-2.6,19.6-5.4,29.2-10.3C237.2,143.3,246.2,135.6,253.7,125.2z"/>
	<path class="st0" d="M291.9,219.2c0.3,0,0.5,0,0.8-0.1c0.9-0.2,1.6-0.7,2.1-1.5c0.5-0.8,0.6-1.7,0.4-2.5
		c-1.6-6.8-4.3-13.5-8.2-19.8c-4-6.6-9-12.5-14.8-17.7c-13.1-11.5-29.6-18.2-47.7-19.3c-1.9-0.1-3.4,1.3-3.5,3.1
		c-0.1,1.8,1.3,3.4,3.1,3.6c36.6,2.2,59.2,28.3,64.6,51.6C289,218.1,290.3,219.2,291.9,219.2z"/>
	<g>
		<defs>
			<rect id="SVGID_1_" x="225.3" y="226.7" width="161.3" height="188.5"/>
		</defs>
		<clipPath id="SVGID_2_">
			<use xlink:href="#SVGID_1_"  style="overflow:visible;"/>
		</clipPath>
		<g class="st1">
			<path class="st0" d="M382.8,387.1L343.4,334c1.8-2.3,3.4-4.6,4.9-7.1c4.3-7.3,7.2-15.4,8.4-23.8c1.3-8.5,0.9-17-1.1-25.2
				c-2.1-8.6-5.8-16.5-11.1-23.7c-5.3-7.1-11.8-13-19.4-17.5c-7.3-4.3-15.4-7.2-23.8-8.4c-8.5-1.3-17-0.9-25.2,1.1
				c-8.6,2.1-16.5,5.8-23.7,11.1c-7.1,5.3-13,11.8-17.5,19.4c-4.3,7.3-7.2,15.3-8.4,23.8c-1.3,8.5-0.9,17,1.1,25.2
				c2.1,8.6,5.8,16.5,11.1,23.7c5.3,7.1,11.8,13,19.4,17.5c7.3,4.3,15.3,7.2,23.8,8.4c3.3,0.5,6.5,0.7,9.8,0.7
				c5.2,0,10.4-0.6,15.5-1.9c2.8-0.7,5.6-1.5,8.2-2.6l39.4,53.1c3.3,4.5,8.5,6.9,13.8,6.9c3.6,0,7.3-1.1,10.5-3.5
				C386.7,405.6,388.5,394.7,382.8,387.1z M291.6,352.4c-18.1,0-36-8.3-47.6-23.9c-9.4-12.7-13.3-28.3-11-43.9
				c2.3-15.6,10.6-29.4,23.3-38.8c10.6-7.8,22.9-11.6,35.1-11.6c18.1,0,36,8.3,47.6,23.9c19.4,26.2,13.9,63.3-12.3,82.7
				C316.2,348.6,303.9,352.4,291.6,352.4z M374.9,405.9c-4.7,3.5-11.4,2.6-14.8-2L321.7,352c3.2-1.6,6.2-3.5,9.1-5.7
				c2.9-2.2,5.6-4.5,8.1-7.1l38.5,51.9C380.8,395.8,379.7,402.4,374.9,405.9z"/>
		</g>
	</g>
	<path class="st0" d="M269.4,268l3.5-13.6c0.5-1.8-0.6-3.7-2.4-4.1c-1.8-0.5-3.7,0.6-4.1,2.4l-3.3,12.6l-9.7,0.1
		c-1.9,0-3.4,1.6-3.4,3.4c0,1.9,1.5,3.4,3.4,3.4c0,0,0,0,0,0l10.5-0.1l11.2,15.2c0.7,0.9,1.7,1.4,2.7,1.4c0.7,0,1.4-0.2,2-0.7
		c1.5-1.1,1.8-3.2,0.7-4.8L269.4,268z"/>
	<path class="st0" d="M265.3,300.8l-5.7-9.8l2.6-3.1c1.2-1.4,1-3.6-0.4-4.8c-1.4-1.2-3.6-1-4.8,0.4l-4.2,4.9
		c-0.9,1.1-1.1,2.7-0.3,3.9l5.7,9.8l-7.4,9c-0.9,1.1-1,2.6-0.3,3.8l8.7,15.4c0.6,1.1,1.8,1.7,3,1.7c0.6,0,1.1-0.1,1.7-0.4
		c1.6-0.9,2.2-3,1.3-4.6l-7.5-13.4l7.4-9.1C265.9,303.6,266.1,302.1,265.3,300.8z"/>
	<path class="st0" d="M329.5,311.8l0-12.3l10.3-2.1c1.8-0.4,3-2.2,2.7-4c-0.4-1.8-2.2-3-4-2.7l-10.9,2.2l-7.5-10.1
		c-1-1.3-2.8-1.8-4.3-1l-9.2,4.7l-7.1-16.2c-0.8-1.7-2.8-2.5-4.5-1.8s-2.5,2.8-1.8,4.5l7.9,18.1l-6.2,13.5c-0.8,1.7,0,3.7,1.7,4.5
		c0.5,0.2,0.9,0.3,1.4,0.3c1.3,0,2.5-0.7,3.1-2l6.4-13.8l8.8-4.5l6.4,8.6l0,14c0,1.9,1.5,3.4,3.4,3.4c0,0,0,0,0,0
		C328,315.2,329.5,313.6,329.5,311.8z"/>
	<path class="st0" d="M305,337l-10-4.9l-2-11.3c-0.3-1.8-2.1-3.1-3.9-2.8c-1.8,0.3-3.1,2.1-2.8,3.9l2,11.4l-5.3,6.3
		c-1.2,1.4-1,3.6,0.4,4.8c0.6,0.5,1.4,0.8,2.2,0.8c1,0,1.9-0.4,2.6-1.2l4.7-5.5l9.2,4.5c0.5,0.2,1,0.3,1.5,0.3
		c1.3,0,2.5-0.7,3.1-1.9C307.3,339.8,306.7,337.8,305,337z"/>
	<path class="st0" d="M299.8,251.8l10.1,5.8l0,7.2c0,1.9,1.5,3.4,3.4,3.4c0,0,0,0,0,0c1.9,0,3.4-1.5,3.4-3.4l0-5.9l3,0
		c1.9,0,3.4-1.6,3.3-3.5c0-1.9-1.5-3.3-3.4-3.3c0,0,0,0-0.1,0l-5.4,0.1l-11.1-6.3c-1.6-0.9-3.7-0.4-4.6,1.3
		C297.6,248.8,298.2,250.9,299.8,251.8z"/>
	<path class="st0" d="M230.9,233.3c-0.6-0.4-1.3-0.7-2-0.7c-1.1,0-2.1,0.5-2.7,1.3c-1.1,1.5-0.8,3.6,0.7,4.7
		c0.2,0.1,2.1,1.6,5.3,3.1c1.8,0.9,4-0.1,4.6-2c0.6-1.6-0.2-3.4-1.7-4.1C232.5,234.4,230.9,233.3,230.9,233.3z"/>
	<path class="st0" d="M187.3,313c3.2,2.6,6.6,4.7,10.2,6.2c4.5,1.9,9.3,2.9,14.3,2.9c0,0,0.1,0,0.2,0c0.1,0,0.1,0,0.2,0
		c1.3,0,2.7-0.1,4-0.2c1-0.1,1.8-0.6,2.4-1.4c0.6-0.8,0.7-1.8,0.5-2.7c-0.4-1.6-2-2.7-3.7-2.5c-1.1,0.1-2.2,0.2-3.3,0.2
		c-0.1,0-0.1,0-0.2,0c-0.1,0-0.1,0-0.2,0c-7.1,0-13.7-2.4-19.6-7.1c2.7,0,5.4-0.6,8-1.2c2.2-0.5,4.3-0.9,6-0.9c2.1,0,4,1,4,1
		c0.5,0.3,1.1,0.4,1.6,0.4c0,0,0.1,0,0.2,0c0.6,0,1.2-0.1,1.8-0.4c0,0,0.2-0.1,0.6-0.3c1.4-0.6,2.2-1.9,2.1-3.4l0-0.1
		c-0.1-1.1-0.7-2-1.6-2.5c-0.9-0.5-1.9-0.6-2.8-0.3c-1.4-0.6-3.5-1.2-5.8-1.2c-2.4,0-4.8,0.5-7.4,1.1c-2.3,0.5-4.7,1-6.7,1
		c-0.2,0-0.4,0-0.6,0c-0.5,0-1-0.1-1.5-0.2c0.9-0.8,1.8-1.6,2.7-2.5c3.1-3,6.7-6.3,9.6-6.3c0.3,0,0.5,0,0.8,0.1
		c1.1,0.3,2.3,0.8,3.4,1.3c2,0.9,3.7,1.6,5.4,1.6h0c0.1,0,0.1,0,0.2,0c0.1,0,0.1,0,0.2,0h0.1c0.4,0,0.7,0,1.1-0.1
		c0.9-0.2,1.6-0.7,2.1-1.4c0.5-0.7,0.7-1.7,0.5-2.5c-0.3-1.8-2.1-3-3.9-2.7c0,0,0,0,0,0c0,0-0.1,0-0.1,0l-0.1,0
		c-0.4,0-2.1-0.8-2.8-1.1c-1.3-0.6-2.8-1.2-4.3-1.7l-0.1,0c-0.8-0.2-1.7-0.3-2.5-0.3c-5.5,0-10.1,4.4-14.2,8.2
		c-1.7,1.6-5,4.7-6.1,4.7c-1.2,0-2.3,0.7-2.9,1.7c-0.6,1.1-0.6,2.4,0.1,3.4C179.1,304.1,181.9,308.6,187.3,313z"/>
	<g>
		<defs>
			<rect id="SVGID_3_" x="111.5" y="85.2" width="196.5" height="265.5"/>
		</defs>
		<clipPath id="SVGID_4_">
			<use xlink:href="#SVGID_3_"  style="overflow:visible;"/>
		</clipPath>
		<g class="st2">
			<path class="st0" d="M229.8,340.7c-5.7,1.7-11.5,2.6-17.3,2.6c-0.1,0-0.3,0-0.4,0c-0.1,0-0.3,0-0.4,0c-17.8,0-36-8.4-47.5-22
				c-7.7-9.1-13.1-18.4-17.3-29.9c-0.1-0.3-0.2-0.7-0.3-0.9c-1.6-4.6-3.1-9.5-4.5-15.2c-0.4-1.5-1.7-2.5-3.3-2.5
				c-0.3,0-0.5,0-0.8,0.1c-1.8,0.4-2.9,2.3-2.4,4.1c0.8,3.3,1.6,6.3,2.5,9.1c-12.2-7.2-19.8-24.7-19.8-37c0-5.4,1.4-9,3.8-9.7
				c1.3-0.3,2.3-0.2,3.3,0.4c2.3,1.4,3.5,5,3.8,6.2c0.4,1.5,1.7,2.6,3.3,2.6c0.2,0,0.5,0,0.8-0.1c0.9-0.2,1.6-0.7,2.1-1.5
				c0.5-0.8,0.6-1.7,0.4-2.5c-0.2-0.7-1.8-7.3-6.9-10.4c-0.1-0.1-0.2-0.1-0.2-0.1c-1.1-6.3-4.5-27.3-4.5-39.4
				c0-63.4,33.9-102.7,88.4-102.7s88.4,39.4,88.4,102.7c0,5.5-0.7,13-1.6,20c-0.2,1.9,1.1,3.6,3,3.8c1.8,0.2,3.4-1.1,3.6-2.9
				c0.9-7.2,1.7-15,1.7-20.9c0-17.7-2.5-33.8-7.4-47.9c-4.7-13.4-11.5-24.9-20.4-34.3c-8.5-9-18.7-15.9-30.4-20.5
				c-11.3-4.5-23.7-6.7-37-6.7c-13.2,0-25.7,2.3-36.9,6.7c-11.7,4.6-21.9,11.5-30.4,20.5c-8.9,9.4-15.7,20.9-20.4,34.3
				c-4.9,14.1-7.4,30.2-7.4,47.9c0,11.5,2.9,30.3,4.2,38.1c-0.4,0.1-0.8,0.1-1.3,0.3c-5.6,1.5-8.8,7.4-8.7,16.2
				c0,8.5,3,18.6,7.9,26.9c2.8,4.7,6,8.7,9.7,11.8c3.6,3.2,7.6,5.5,11.8,6.8c1.1,2.9,2.2,5.5,3.5,8.2c3.8,8.2,8.6,15.6,14.7,22.7
				c6.3,7.5,14.5,13.6,23.8,17.9c9.2,4.2,19.1,6.4,28.8,6.4c0.1,0,0.3,0,0.4,0c0.1,0,0.3,0,0.4,0c6.4,0,12.9-1,19.2-2.8
				c1.9-0.5,2.9-2.5,2.2-4.3C233.4,341.1,231.5,340.2,229.8,340.7z"/>
		</g>
	</g>
</g>
</svg>
