<?xml version="1.0" encoding="utf-8"?>
<!-- Generator: Adobe Illustrator 25.0.0, SVG Export Plug-In . SVG Version: 6.00 Build 0)  -->
<svg version="1.1" id="Calque_1" xmlns="http://www.w3.org/2000/svg" xmlns:xlink="http://www.w3.org/1999/xlink" x="0px" y="0px"
	 viewBox="0 0 500 500" style="enable-background:new 0 0 500 500;" xml:space="preserve">
<style type="text/css">
	.st0{clip-path:url(#SVGID_2_);}
	.st1{fill:#BF5A36;}
</style>
<g id="c4d50d4099">
	<g>
		<defs>
			<rect id="SVGID_1_" x="95.2" y="86.7" width="306.1" height="326.7"/>
		</defs>
		<clipPath id="SVGID_2_">
			<use xlink:href="#SVGID_1_"  style="overflow:visible;"/>
		</clipPath>
		<g class="st0">
			<path class="st1" d="M398.6,132.3c5.7-12.1,1.3-26.4-10.2-33.4c-13.4-8-28.5-12.3-43.8-12.3c-15.2,0-30.2,4.2-43.5,12
				c-11.7,7-16,21.5-10.2,33.7l22.5,47l2.2,39c0,0.1,0,0.2,0,0.3l1.4,24.6c0.1,2.5,2.2,4.3,4.7,4.2c2.5-0.1,4.3-2.2,4.2-4.7
				l-1.1-20.1h40.6l-3.9,70.6c-5.6-2.5-12.1-4.5-18.3-6c-2.4-8.2-9.5-14.5-18.3-15.4v-2.6c0-11.3-9.2-20.6-20.6-20.6h-10.6
				c-2-3.6-0.2-7.7,3.9-15c4.2-7.4,9.3-16.6,3.2-25.7c-0.9-1.3-2.3-2-3.8-2c-1.5,0-2.9,0.9-3.7,2.2c-4.3,7.4-12.1,10.4-20.2,13.5
				c-7.3,2.8-15.2,5.8-20.6,12.3v-23.5c0-2.4-1.8-4.3-4.1-4.4v-14c0-2.5-2-4.5-4.5-4.5h-5.3v-31.2h4.9c2.5,0,4.5-2,4.5-4.5
				c0-2.5-2-4.5-4.5-4.5h-4.9V144h7.7c2.5,0,4.5-2,4.5-4.5s-2-4.5-4.5-4.5h-7.7v-3.5h16.6c2.5,0,4.5-2,4.5-4.5c0-2.5-2-4.5-4.5-4.5
				h-16.6v-3.5h7.7c2.5,0,4.5-2,4.5-4.5c0-2.5-2-4.5-4.5-4.5h-7.7v-3.5h4.9c2.5,0,4.5-2,4.5-4.5c0-2.5-2-4.5-4.5-4.5h-4.9v-6.6
				c0-2.5-2-4.5-4.5-4.5c-2.5,0-4.5,2-4.5,4.5v6.6h-4.9c-2.5,0-4.5,2-4.5,4.5c0,2.5,2,4.5,4.5,4.5h4.9v3.5h-7.7
				c-2.5,0-4.5,2-4.5,4.5c0,2.5,2,4.5,4.5,4.5h7.7v3.5H213c-2.5,0-4.5,2-4.5,4.5c0,2.5,2,4.5,4.5,4.5h16.6v3.5h-7.7
				c-2.5,0-4.5,2-4.5,4.5s2,4.5,4.5,4.5h7.7v3.5h-4.9c-2.5,0-4.5,2-4.5,4.5s2,4.5,4.5,4.5h4.9v31.2h-5.3c-2.5,0-4.5,2-4.5,4.5v14
				c-2.3,0.2-4.2,2.1-4.2,4.4v76.9c-3.3,0.8-6.8,1.8-10,2.9v-14.6c0-2.5-2-4.5-4.5-4.5h-1.8V250c0-2.5-2-4.5-4.5-4.5h-2.1
				c0-2.5,0.1-5,0.1-7.4c0.5-20.4,1-41.5-11.5-54.3c-7.6-7.7-18.8-11.5-34.3-11.5c-2.5,0-4.5,2-4.5,4.5v68.7h-2.2
				c-2.5,0-4.5,2-4.5,4.5v21.3h-1.8c-2.5,0-4.5,2-4.5,4.5v18.4c0,2.5,2,4.5,4.5,4.5c2.5,0,4.5-2,4.5-4.5v-13.9h58v13.7
				c-8.1,3.9-14,9.1-14.1,15.8c0,0,0,0.1,0,0.1v73.9c0,4,2.1,7.6,6,10.9c-5.4,5.7-13,9-20.9,9c-3,0-5.9-0.5-8.7-1.3
				c7.4-6.9,12-16.8,12-27.6v-66.9c0-2.5-2-4.5-4.5-4.5H99.7c-2.5,0-4.5,2-4.5,4.5v66.9c0,20.9,17,37.9,37.9,37.9
				c6.2,0,12.1-1.5,17.3-4.2c5.3,2.7,11.3,4.2,17.3,4.2c11,0,21.4-4.8,28.6-13.1c4.5,2.2,10.1,4.2,16.8,6
				c17.9,4.7,41.5,7.4,66.6,7.4s48.8-2.6,66.6-7.4c20.2-5.4,30.5-12.7,30.5-21.7v-73.9c0,0,0-0.1,0-0.1c0-4.5-2.7-8.3-6.9-11.5
				l6.6-118.8L398.6,132.3z M151.6,181.5c10.7,0.6,18.4,3.5,23.5,8.7c9.9,10.1,9.4,28.4,9,47.8c-0.1,2.5-0.1,5.1-0.2,7.6h-32.3
				V181.5z M190.5,271.3H145v-16.8h45.5V271.3z M104.2,312.2h58V362h-58V312.2z M148.4,399.3c-0.2,0.1-0.4,0.2-0.5,0.3
				c-4.3,2.6-9.3,4-14.7,4c-16,0-29-13-29-29v-3.8h58v3.8C162.2,385.1,156.7,394.2,148.4,399.3z M344,296.7
				c18.9,5,24.1,10.7,24.1,13.2c0,2.5-5,8.1-23.8,13.1c-0.1,0-0.2,0-0.3,0.1V296.7z M228.8,196.5h10.6v9.6h-10.6V196.5z M224.6,215
				h18.8v42.1c-2.6,3.5-4,7.8-4,12.2v2.5h-2.3c-4.7,0-9,1.5-12.5,4V215z M224.6,293.2c0-6.9,5.6-12.5,12.5-12.5h22.2
				c2.5,0,4.5-2,4.5-4.5c0-2.5-2-4.5-4.5-4.5h-10.9v-2.5c0-3.1,1.2-6,3.4-8.2h13.9c2.5,0,4.5-2,4.5-4.5c0-2.5-2-4.5-4.5-4.5h-10.9
				c1.4-14.4,10.4-17.9,21.6-22.2c5.9-2.3,12.4-4.8,17.8-9.2c-0.8,2.5-2.3,5.2-4.2,8.5c-4.4,7.8-9.9,17.5-1.7,26.8
				c0.8,1,2.1,1.5,3.3,1.5h12.8c6.4,0,11.6,5.2,11.6,11.6v2.5H274c-2.5,0-4.5,2-4.5,4.5c0,2.5,2,4.5,4.5,4.5h48.5
				c6.9,0,12.5,5.6,12.5,12.5v32c-15.8,3.2-35,4.9-55.2,4.9c-20.3,0-39.5-1.7-55.2-4.9L224.6,293.2L224.6,293.2z M202.6,301
				c0.2-0.1,0.4-0.2,0.6-0.2c3.3-1.4,7.4-2.8,12.5-4.1v26.4c-0.1,0-0.2,0-0.3-0.1c-18.8-5-23.8-10.6-23.8-13.1c0,0,0,0,0,0
				C191.6,308.1,194.3,304.6,202.6,301z M344.2,396.8c-17.1,4.6-40,7.1-64.3,7.1s-47.2-2.5-64.3-7.1c-8.4-2.2-14-4.6-17.7-6.7
				c0,0,0,0,0,0c-0.2-0.1-0.4-0.2-0.6-0.3c-4.1-2.5-5.6-4.7-5.6-6V323c5.1,3.3,12.2,6.2,21.6,8.6c17.9,4.8,41.6,7.4,66.7,7.4
				s48.8-2.6,66.7-7.4c9.3-2.5,16.5-5.4,21.5-8.6v60.7C368.1,386.2,363,391.8,344.2,396.8z M320.6,173.8L299,128.6
				c-3.9-8.1-1-17.6,6.7-22.2c11.9-7.1,25.3-10.8,38.9-10.8c13.7,0,27.3,3.8,39.2,11c7.5,4.6,10.4,14,6.7,22l-21.1,45.3h-8.8
				l7.7-42.6c0.4-2.4-1.2-4.7-3.6-5.2c-2.4-0.4-4.7,1.2-5.2,3.6l-7.9,44.2H338l-8.2-44.1c-0.4-2.4-2.8-4-5.2-3.6
				c-2.4,0.4-4,2.8-3.6,5.2l7.9,42.5H320.6z M324.3,213.7l-1.7-31h11.8c0,0,0,0,0,0c0,0,0,0,0,0h21c0,0,0,0,0,0c0,0,0,0,0,0h12.2
				l-1.7,31H324.3z M310.2,358.3c0,2.5-2,4.5-4.5,4.5h-51.9c-2.5,0-4.5-2-4.5-4.5c0-2.5,2-4.5,4.5-4.5h51.9
				C308.2,353.8,310.2,355.8,310.2,358.3z M310.2,375.2c0,2.5-2,4.5-4.5,4.5h-51.9c-2.5,0-4.5-2-4.5-4.5c0-2.5,2-4.5,4.5-4.5h51.9
				C308.2,370.7,310.2,372.7,310.2,375.2z"/>
		</g>
	</g>
</g>
</svg>
