<?xml version="1.0" encoding="utf-8"?>
<!-- Generator: Adobe Illustrator 25.0.0, SVG Export Plug-In . SVG Version: 6.00 Build 0)  -->
<svg version="1.1" id="Calque_1" xmlns="http://www.w3.org/2000/svg" xmlns:xlink="http://www.w3.org/1999/xlink" x="0px" y="0px"
	 viewBox="0 0 500 500" style="enable-background:new 0 0 500 500;" xml:space="preserve">
<style type="text/css">
	.st0{clip-path:url(#SVGID_2_);}
	.st1{fill:#BF5A36;}
</style>
<g id="_x30_839e7aa39">
	<g>
		<defs>
			<rect id="SVGID_1_" x="73.5" y="135.5" width="353" height="229"/>
		</defs>
		<clipPath id="SVGID_2_">
			<use xlink:href="#SVGID_1_"  style="overflow:visible;"/>
		</clipPath>
		<g class="st0">
			<path class="st1" d="M408,135.6H91.9c-1.2,0-2.4,0.1-3.6,0.4c-1.2,0.2-2.3,0.6-3.4,1c-1.1,0.5-2.2,1-3.2,1.7
				c-1,0.7-1.9,1.4-2.8,2.3c-0.9,0.8-1.6,1.8-2.3,2.8c-0.7,1-1.2,2.1-1.7,3.2c-0.5,1.1-0.8,2.3-1,3.4c-0.2,1.2-0.4,2.4-0.4,3.6v192
				c0,1.2,0.1,2.4,0.4,3.6c0.2,1.2,0.6,2.3,1,3.4c0.5,1.1,1,2.2,1.7,3.2c0.7,1,1.4,1.9,2.3,2.8c0.8,0.9,1.8,1.6,2.8,2.3
				c1,0.7,2.1,1.2,3.2,1.7c1.1,0.5,2.3,0.8,3.4,1c1.2,0.2,2.4,0.4,3.6,0.4H408c1.2,0,2.4-0.1,3.6-0.4c1.2-0.2,2.3-0.6,3.4-1
				c1.1-0.5,2.2-1,3.2-1.7c1-0.7,1.9-1.4,2.8-2.3c0.8-0.8,1.6-1.8,2.3-2.8c0.7-1,1.2-2.1,1.7-3.2c0.5-1.1,0.8-2.3,1-3.4
				c0.2-1.2,0.3-2.4,0.3-3.6V154c0-1.2-0.1-2.4-0.3-3.6c-0.2-1.2-0.6-2.3-1-3.4c-0.5-1.1-1-2.2-1.7-3.2c-0.7-1-1.4-1.9-2.3-2.8
				c-0.9-0.9-1.8-1.6-2.8-2.3c-1-0.7-2.1-1.2-3.2-1.7c-1.1-0.5-2.3-0.8-3.4-1C410.4,135.7,409.2,135.6,408,135.6z M420.2,345.9
				c0,0.8-0.1,1.6-0.2,2.4c-0.2,0.8-0.4,1.6-0.7,2.3c-0.3,0.7-0.7,1.4-1.1,2.1c-0.4,0.7-1,1.3-1.5,1.9c-0.6,0.6-1.2,1.1-1.9,1.5
				c-0.7,0.4-1.4,0.8-2.1,1.1c-0.7,0.3-1.5,0.5-2.3,0.7c-0.8,0.2-1.6,0.2-2.4,0.2H91.9c-0.8,0-1.6-0.1-2.4-0.2
				c-0.8-0.2-1.6-0.4-2.3-0.7c-0.7-0.3-1.4-0.7-2.1-1.1c-0.7-0.4-1.3-1-1.8-1.5s-1.1-1.2-1.5-1.9c-0.4-0.7-0.8-1.4-1.1-2.1
				c-0.3-0.7-0.5-1.5-0.7-2.3c-0.2-0.8-0.2-1.6-0.2-2.4V154c0-0.8,0.1-1.6,0.2-2.4c0.2-0.8,0.4-1.6,0.7-2.3c0.3-0.7,0.7-1.4,1.1-2.1
				c0.4-0.7,1-1.3,1.5-1.9s1.2-1.1,1.8-1.5c0.7-0.4,1.4-0.8,2.1-1.1c0.7-0.3,1.5-0.5,2.3-0.7c0.8-0.2,1.6-0.2,2.4-0.2H408
				c0.8,0,1.6,0.1,2.4,0.2c0.8,0.2,1.6,0.4,2.3,0.7c0.7,0.3,1.4,0.7,2.1,1.1c0.7,0.4,1.3,1,1.9,1.5c0.6,0.6,1.1,1.2,1.5,1.9
				c0.4,0.7,0.8,1.4,1.1,2.1c0.3,0.7,0.5,1.5,0.7,2.3c0.2,0.8,0.2,1.6,0.2,2.4V345.9z"/>
		</g>
	</g>
	<path class="st1" d="M112.4,222.1h35.3c0.8,0,1.6-0.1,2.4-0.2c0.8-0.2,1.6-0.4,2.3-0.7c0.7-0.3,1.4-0.7,2.1-1.1
		c0.7-0.4,1.3-1,1.9-1.5c0.6-0.6,1.1-1.2,1.5-1.9c0.4-0.7,0.8-1.4,1.1-2.1c0.3-0.7,0.5-1.5,0.7-2.3c0.2-0.8,0.2-1.6,0.2-2.4v-35.4
		c0-0.8-0.1-1.6-0.2-2.4c-0.2-0.8-0.4-1.6-0.7-2.3c-0.3-0.7-0.7-1.4-1.1-2.1c-0.4-0.7-1-1.3-1.5-1.9c-0.6-0.6-1.2-1.1-1.9-1.5
		c-0.7-0.4-1.4-0.8-2.1-1.1c-0.7-0.3-1.5-0.5-2.3-0.7c-0.8-0.2-1.6-0.2-2.4-0.2h-35.3c-0.8,0-1.6,0.1-2.4,0.2
		c-0.8,0.2-1.6,0.4-2.3,0.7c-0.7,0.3-1.4,0.7-2.1,1.1c-0.7,0.4-1.3,1-1.9,1.5c-0.6,0.6-1.1,1.2-1.5,1.9c-0.4,0.7-0.8,1.4-1.1,2.1
		c-0.3,0.7-0.5,1.5-0.7,2.3c-0.2,0.8-0.2,1.6-0.2,2.4v35.4c0,0.8,0.1,1.6,0.2,2.4c0.2,0.8,0.4,1.6,0.7,2.3c0.3,0.7,0.7,1.4,1.1,2.1
		c0.4,0.7,1,1.3,1.5,1.9c0.6,0.6,1.2,1.1,1.9,1.5c0.7,0.4,1.4,0.8,2.1,1.1c0.7,0.3,1.5,0.5,2.3,0.7
		C110.8,222,111.5,222.1,112.4,222.1z M147.7,216H133v-20.8h20.7v14.6c0,0.4,0,0.8-0.1,1.2c-0.1,0.4-0.2,0.8-0.3,1.1
		c-0.2,0.4-0.3,0.7-0.6,1.1c-0.2,0.3-0.5,0.6-0.8,0.9c-0.3,0.3-0.6,0.5-0.9,0.8c-0.3,0.2-0.7,0.4-1.1,0.6c-0.4,0.2-0.8,0.3-1.1,0.3
		S148.1,216,147.7,216L147.7,216z M153.8,174.5v14.6H133v-20.8h14.6c0.4,0,0.8,0,1.2,0.1s0.8,0.2,1.1,0.3c0.4,0.2,0.7,0.3,1.1,0.6
		c0.3,0.2,0.6,0.5,0.9,0.8c0.3,0.3,0.5,0.6,0.8,0.9c0.2,0.3,0.4,0.7,0.6,1.1c0.2,0.4,0.3,0.8,0.3,1.2
		C153.7,173.7,153.8,174.1,153.8,174.5L153.8,174.5z M106.2,174.5c0-0.4,0-0.8,0.1-1.2c0.1-0.4,0.2-0.8,0.3-1.2
		c0.2-0.4,0.3-0.7,0.6-1.1c0.2-0.3,0.5-0.6,0.8-0.9c0.3-0.3,0.6-0.5,0.9-0.8c0.3-0.2,0.7-0.4,1.1-0.6c0.4-0.2,0.8-0.3,1.2-0.3
		c0.4-0.1,0.8-0.1,1.2-0.1H127V216h-14.6c-0.4,0-0.8,0-1.2-0.1c-0.4-0.1-0.8-0.2-1.2-0.3c-0.4-0.2-0.7-0.3-1.1-0.6
		c-0.3-0.2-0.6-0.5-0.9-0.8c-0.3-0.3-0.5-0.6-0.8-0.9c-0.2-0.3-0.4-0.7-0.6-1.1c-0.2-0.4-0.3-0.8-0.3-1.1c-0.1-0.4-0.1-0.8-0.1-1.2
		V174.5z"/>
	<path class="st1" d="M107.2,252.8V270c0,0.4,0.1,0.8,0.2,1.2s0.4,0.7,0.7,1c0.3,0.3,0.6,0.5,1,0.7c0.4,0.2,0.8,0.2,1.2,0.2
		c0.4,0,0.8-0.1,1.2-0.2c0.4-0.2,0.7-0.4,1-0.7c0.3-0.3,0.5-0.6,0.7-1c0.2-0.4,0.2-0.8,0.2-1.2v-17.2c0-0.4-0.1-0.8-0.2-1.2
		c-0.2-0.4-0.4-0.7-0.7-1c-0.3-0.3-0.6-0.5-1-0.7c-0.4-0.2-0.8-0.2-1.2-0.2c-0.4,0-0.8,0.1-1.2,0.2c-0.4,0.2-0.7,0.4-1,0.7
		c-0.3,0.3-0.5,0.6-0.7,1S107.2,252.4,107.2,252.8z"/>
	<path class="st1" d="M131.9,252.8V270c0,0.4,0.1,0.8,0.2,1.2c0.2,0.4,0.4,0.7,0.7,1c0.3,0.3,0.6,0.5,1,0.7c0.4,0.2,0.8,0.2,1.2,0.2
		s0.8-0.1,1.2-0.2c0.4-0.2,0.7-0.4,1-0.7c0.3-0.3,0.5-0.6,0.7-1s0.2-0.8,0.2-1.2v-17.2c0-0.4-0.1-0.8-0.2-1.2s-0.4-0.7-0.7-1
		c-0.3-0.3-0.6-0.5-1-0.7c-0.4-0.2-0.8-0.2-1.2-0.2s-0.8,0.1-1.2,0.2c-0.4,0.2-0.7,0.4-1,0.7c-0.3,0.3-0.5,0.6-0.7,1
		C132,252,131.9,252.4,131.9,252.8z"/>
	<path class="st1" d="M156.7,252.8V270c0,0.4,0.1,0.8,0.2,1.2s0.4,0.7,0.7,1c0.3,0.3,0.6,0.5,1,0.7c0.4,0.2,0.8,0.2,1.2,0.2
		c0.4,0,0.8-0.1,1.2-0.2c0.4-0.2,0.7-0.4,1-0.7c0.3-0.3,0.5-0.6,0.7-1s0.2-0.8,0.2-1.2v-17.2c0-0.4-0.1-0.8-0.2-1.2s-0.4-0.7-0.7-1
		c-0.3-0.3-0.6-0.5-1-0.7c-0.4-0.2-0.8-0.2-1.2-0.2c-0.4,0-0.8,0.1-1.2,0.2c-0.4,0.2-0.7,0.4-1,0.7c-0.3,0.3-0.5,0.6-0.7,1
		S156.7,252.4,156.7,252.8z"/>
	<path class="st1" d="M343.2,270v-17.2c0-0.4-0.1-0.8-0.2-1.2s-0.4-0.7-0.7-1c-0.3-0.3-0.6-0.5-1-0.7c-0.4-0.2-0.8-0.2-1.2-0.2
		s-0.8,0.1-1.2,0.2c-0.4,0.2-0.7,0.4-1,0.7c-0.3,0.3-0.5,0.6-0.7,1c-0.2,0.4-0.2,0.8-0.2,1.2V270c0,0.4,0.1,0.8,0.2,1.2
		c0.2,0.4,0.4,0.7,0.7,1c0.3,0.3,0.6,0.5,1,0.7c0.4,0.2,0.8,0.2,1.2,0.2s0.8-0.1,1.2-0.2c0.4-0.2,0.7-0.4,1-0.7
		c0.3-0.3,0.5-0.6,0.7-1S343.2,270.4,343.2,270z"/>
	<path class="st1" d="M367.9,270v-17.2c0-0.4-0.1-0.8-0.2-1.2c-0.2-0.4-0.4-0.7-0.7-1c-0.3-0.3-0.6-0.5-1-0.7
		c-0.4-0.2-0.8-0.2-1.2-0.2c-0.4,0-0.8,0.1-1.2,0.2c-0.4,0.2-0.7,0.4-1,0.7c-0.3,0.3-0.5,0.6-0.7,1s-0.2,0.8-0.2,1.2V270
		c0,0.4,0.1,0.8,0.2,1.2s0.4,0.7,0.7,1c0.3,0.3,0.6,0.5,1,0.7c0.4,0.2,0.8,0.2,1.2,0.2c0.4,0,0.8-0.1,1.2-0.2c0.4-0.2,0.7-0.4,1-0.7
		c0.3-0.3,0.5-0.6,0.7-1C367.8,270.8,367.9,270.4,367.9,270z"/>
	<path class="st1" d="M392.6,270v-17.2c0-0.4-0.1-0.8-0.2-1.2s-0.4-0.7-0.7-1c-0.3-0.3-0.6-0.5-1-0.7c-0.4-0.2-0.8-0.2-1.2-0.2
		s-0.8,0.1-1.2,0.2c-0.4,0.2-0.7,0.4-1,0.7c-0.3,0.3-0.5,0.6-0.7,1c-0.2,0.4-0.2,0.8-0.2,1.2V270c0,0.4,0.1,0.8,0.2,1.2
		c0.2,0.4,0.4,0.7,0.7,1c0.3,0.3,0.6,0.5,1,0.7c0.4,0.2,0.8,0.2,1.2,0.2s0.8-0.1,1.2-0.2c0.4-0.2,0.7-0.4,1-0.7
		c0.3-0.3,0.5-0.6,0.7-1S392.6,270.4,392.6,270z"/>
	<path class="st1" d="M212.8,273.1c0.4,0,0.8-0.1,1.2-0.2c0.4-0.2,0.7-0.4,1-0.7c0.3-0.3,0.5-0.6,0.7-1c0.2-0.4,0.2-0.8,0.2-1.2
		v-17.2c0-0.4-0.1-0.8-0.2-1.2c-0.2-0.4-0.4-0.7-0.7-1c-0.3-0.3-0.6-0.5-1-0.7c-0.4-0.2-0.8-0.2-1.2-0.2c-0.4,0-0.8,0.1-1.2,0.2
		c-0.4,0.2-0.7,0.4-1,0.7c-0.3,0.3-0.5,0.6-0.7,1s-0.2,0.8-0.2,1.2V270c0,0.4,0.1,0.8,0.2,1.2s0.4,0.7,0.7,1c0.3,0.3,0.6,0.5,1,0.7
		C212,273,212.4,273.1,212.8,273.1z"/>
	<path class="st1" d="M237.7,273.1c0.4,0,0.8-0.1,1.2-0.2c0.4-0.2,0.7-0.4,1-0.7c0.3-0.3,0.5-0.6,0.7-1c0.2-0.4,0.2-0.8,0.2-1.2
		v-17.2c0-0.4-0.1-0.8-0.2-1.2c-0.2-0.4-0.4-0.7-0.7-1c-0.3-0.3-0.6-0.5-1-0.7c-0.4-0.2-0.8-0.2-1.2-0.2s-0.8,0.1-1.2,0.2
		c-0.4,0.2-0.7,0.4-1,0.7c-0.3,0.3-0.5,0.6-0.7,1s-0.2,0.8-0.2,1.2V270c0,0.4,0.1,0.8,0.2,1.2s0.4,0.7,0.7,1c0.3,0.3,0.6,0.5,1,0.7
		C236.9,273,237.3,273.1,237.7,273.1z"/>
	<path class="st1" d="M262.3,273.1c0.4,0,0.8-0.1,1.2-0.2c0.4-0.2,0.7-0.4,1-0.7c0.3-0.3,0.5-0.6,0.7-1c0.2-0.4,0.2-0.8,0.2-1.2
		v-17.2c0-0.4-0.1-0.8-0.2-1.2c-0.2-0.4-0.4-0.7-0.7-1c-0.3-0.3-0.6-0.5-1-0.7c-0.4-0.2-0.8-0.2-1.2-0.2c-0.4,0-0.8,0.1-1.2,0.2
		c-0.4,0.2-0.7,0.4-1,0.7c-0.3,0.3-0.5,0.6-0.7,1s-0.2,0.8-0.2,1.2V270c0,0.4,0.1,0.8,0.2,1.2s0.4,0.7,0.7,1c0.3,0.3,0.6,0.5,1,0.7
		C261.5,273,261.9,273.1,262.3,273.1z"/>
	<path class="st1" d="M287,273.1c0.4,0,0.8-0.1,1.2-0.2c0.4-0.2,0.7-0.4,1-0.7c0.3-0.3,0.5-0.6,0.7-1s0.2-0.8,0.2-1.2v-17.2
		c0-0.4-0.1-0.8-0.2-1.2s-0.4-0.7-0.7-1c-0.3-0.3-0.6-0.5-1-0.7c-0.4-0.2-0.8-0.2-1.2-0.2s-0.8,0.1-1.2,0.2c-0.4,0.2-0.7,0.4-1,0.7
		c-0.3,0.3-0.5,0.6-0.7,1c-0.2,0.4-0.2,0.8-0.2,1.2V270c0,0.4,0.1,0.8,0.2,1.2c0.2,0.4,0.4,0.7,0.7,1c0.3,0.3,0.6,0.5,1,0.7
		C286.2,273,286.6,273.1,287,273.1z"/>
	<path class="st1" d="M288.9,308H103.2c-0.4,0-0.8,0.1-1.2,0.2s-0.7,0.4-1,0.7c-0.3,0.3-0.5,0.6-0.7,1c-0.2,0.4-0.2,0.8-0.2,1.2
		s0.1,0.8,0.2,1.2c0.2,0.4,0.4,0.7,0.7,1c0.3,0.3,0.6,0.5,1,0.7c0.4,0.2,0.8,0.2,1.2,0.2h185.8c0.4,0,0.8-0.1,1.2-0.2
		c0.4-0.2,0.7-0.4,1-0.7c0.3-0.3,0.5-0.6,0.7-1s0.2-0.8,0.2-1.2s-0.1-0.8-0.2-1.2s-0.4-0.7-0.7-1c-0.3-0.3-0.6-0.5-1-0.7
		C289.7,308.1,289.3,308,288.9,308z"/>
	<path class="st1" d="M236.9,331.5H103.2c-0.4,0-0.8,0.1-1.2,0.2s-0.7,0.4-1,0.7c-0.3,0.3-0.5,0.6-0.7,1c-0.2,0.4-0.2,0.8-0.2,1.2
		s0.1,0.8,0.2,1.2c0.2,0.4,0.4,0.7,0.7,1s0.6,0.5,1,0.7c0.4,0.2,0.8,0.2,1.2,0.2h133.8c0.4,0,0.8-0.1,1.2-0.2c0.4-0.2,0.7-0.4,1-0.7
		c0.3-0.3,0.5-0.6,0.7-1s0.2-0.8,0.2-1.2s-0.1-0.8-0.2-1.2c-0.2-0.4-0.4-0.7-0.7-1c-0.3-0.3-0.6-0.5-1-0.7S237.3,331.5,236.9,331.5z
		"/>
	<path class="st1" d="M396.7,308h-66.4c-0.4,0-0.8,0.1-1.2,0.2s-0.7,0.4-1,0.7c-0.3,0.3-0.5,0.6-0.7,1c-0.2,0.4-0.2,0.8-0.2,1.2
		v23.4c0,0.4,0.1,0.8,0.2,1.2c0.2,0.4,0.4,0.7,0.7,1c0.3,0.3,0.6,0.5,1,0.7c0.4,0.2,0.8,0.2,1.2,0.2h66.4c0.4,0,0.8-0.1,1.2-0.2
		c0.4-0.2,0.7-0.4,1-0.7c0.3-0.3,0.5-0.6,0.7-1s0.2-0.8,0.2-1.2v-23.4c0-0.4-0.1-0.8-0.2-1.2s-0.4-0.7-0.7-1c-0.3-0.3-0.6-0.5-1-0.7
		S397.1,308,396.7,308z M393.6,331.5h-60.3v-17.3h60.3V331.5z"/>
	<path class="st1" d="M396.7,162.2h-66.4c-0.4,0-0.8,0.1-1.2,0.2c-0.4,0.2-0.7,0.4-1,0.7c-0.3,0.3-0.5,0.6-0.7,1
		c-0.2,0.4-0.2,0.8-0.2,1.2s0.1,0.8,0.2,1.2c0.2,0.4,0.4,0.7,0.7,1c0.3,0.3,0.6,0.5,1,0.7s0.8,0.2,1.2,0.2h66.4
		c0.4,0,0.8-0.1,1.2-0.2s0.7-0.4,1-0.7c0.3-0.3,0.5-0.6,0.7-1s0.2-0.8,0.2-1.2s-0.1-0.8-0.2-1.2s-0.4-0.7-0.7-1
		c-0.3-0.3-0.6-0.5-1-0.7C397.5,162.3,397.1,162.2,396.7,162.2z"/>
</g>
</svg>
