<?xml version="1.0" encoding="utf-8"?>
<!-- Generator: Adobe Illustrator 25.0.0, SVG Export Plug-In . SVG Version: 6.00 Build 0)  -->
<svg version="1.1" id="Calque_1" xmlns="http://www.w3.org/2000/svg" xmlns:xlink="http://www.w3.org/1999/xlink" x="0px" y="0px"
	 viewBox="0 0 500 500" style="enable-background:new 0 0 500 500;" xml:space="preserve">
<style type="text/css">
	.st0{clip-path:url(#SVGID_2_);}
	.st1{fill:#BF5A36;}
	.st2{fill:#D9805F;}
	.st3{fill-rule:evenodd;clip-rule:evenodd;fill:#F4EDE7;}
	.st4{clip-path:url(#SVGID_4_);}
	.st5{fill:#F4EDE7;}
</style>
<g id="_x38_56e85cbd9">
	<g>
		<defs>
			<rect id="SVGID_1_" x="116.6" y="67" width="266.1" height="359.7"/>
		</defs>
		<clipPath id="SVGID_2_">
			<use xlink:href="#SVGID_1_"  style="overflow:visible;"/>
		</clipPath>
		<g class="st0">
			<path class="st1" d="M378.3,365.2c0.1,2.1,0,3.3-0.2,3.7c-0.5,0.5-1,0.8-1.7,1.1c-0.2,0.2-0.4,0.3-0.7,0.4
				c-22.5,10.8-191.8,62.6-198.9,54.1c-7.5-9-60.1-238.3-60.1-291.4c0-7.4,30.4-18.6,68.3-29.7c29.3-8.6,63.1-17.2,90.7-23.8
				C306.9,72.1,330,67,330,67c2.8,0.4,11.7,44.2,21.2,95.8c3.4,18.2,6.8,37.5,10.1,56.1c8.7,49.4,16.3,94.5,18.3,106.4
				c3.6,20.9,1.2,30-0.5,33.4C379,360.9,378.7,363.1,378.3,365.2z"/>
		</g>
	</g>
	<path class="st2" d="M317.1,277.3c0,2.1-0.1,4.2-0.3,6.2c-0.2,2.1-0.5,4.1-0.9,6.2c-0.4,2-0.9,4.1-1.5,6c-0.6,2-1.3,3.9-2.1,5.9
		s-1.7,3.8-2.7,5.6c-1,1.8-2.1,3.6-3.2,5.3c-1.2,1.7-2.4,3.4-3.7,5c-1.3,1.6-2.7,3.2-4.2,4.6c-1.5,1.5-3,2.9-4.6,4.2
		c-1.6,1.3-3.3,2.6-5,3.7c-1.7,1.2-3.5,2.2-5.3,3.2c-1.8,1-3.7,1.9-5.6,2.7s-3.9,1.5-5.9,2.1c-2,0.6-4,1.1-6,1.5
		c-2,0.4-4.1,0.7-6.2,0.9c-2.1,0.2-4.1,0.3-6.2,0.3c-2.1,0-4.2-0.1-6.2-0.3c-2.1-0.2-4.1-0.5-6.2-0.9c-2-0.4-4.1-0.9-6-1.5
		c-2-0.6-3.9-1.3-5.9-2.1c-1.9-0.8-3.8-1.7-5.6-2.7c-1.8-1-3.6-2-5.3-3.2c-1.7-1.2-3.4-2.4-5-3.7c-1.6-1.3-3.1-2.7-4.6-4.2
		s-2.9-3-4.2-4.6c-1.3-1.6-2.6-3.3-3.7-5s-2.2-3.5-3.2-5.3c-1-1.8-1.9-3.7-2.7-5.6c-0.8-1.9-1.5-3.9-2.1-5.9c-0.6-2-1.1-4-1.5-6
		c-0.4-2-0.7-4.1-0.9-6.2c-0.2-2.1-0.3-4.1-0.3-6.2c0-2.1,0.1-4.2,0.3-6.2c0.2-2.1,0.5-4.1,0.9-6.2c0.4-2,0.9-4.1,1.5-6
		c0.6-2,1.3-3.9,2.1-5.9c0.8-1.9,1.7-3.8,2.7-5.6c1-1.8,2-3.6,3.2-5.3s2.4-3.4,3.7-5c1.3-1.6,2.7-3.1,4.2-4.6s3-2.9,4.6-4.2
		c1.6-1.3,3.3-2.6,5-3.7c1.7-1.2,3.5-2.2,5.3-3.2c1.8-1,3.7-1.9,5.6-2.7c1.9-0.8,3.9-1.5,5.9-2.1c2-0.6,4-1.1,6-1.5
		c2-0.4,4.1-0.7,6.2-0.9c2.1-0.2,4.1-0.3,6.2-0.3c2.1,0,4.2,0.1,6.2,0.3c2.1,0.2,4.1,0.5,6.2,0.9c2,0.4,4.1,0.9,6,1.5
		c2,0.6,3.9,1.3,5.9,2.1c1.9,0.8,3.8,1.7,5.6,2.7c1.8,1,3.6,2,5.3,3.2c1.7,1.2,3.4,2.4,5,3.7c1.6,1.3,3.1,2.7,4.6,4.2
		c1.5,1.5,2.9,3,4.2,4.6c1.3,1.6,2.6,3.3,3.7,5c1.2,1.7,2.2,3.5,3.2,5.3c1,1.8,1.9,3.7,2.7,5.6c0.8,1.9,1.5,3.9,2.1,5.9
		c0.6,2,1.1,4,1.5,6c0.4,2,0.7,4.1,0.9,6.2C317,273.1,317.1,275.2,317.1,277.3z"/>
	<path class="st3" d="M152.4,171.9c-1.5-0.6-3.1-0.9-4.7-0.9c-1.4-0.1-3-0.5-4.4-0.1c-0.5-0.3-1.1-0.4-1.6-0.2
		c-1.4,0.5-1.4,1.7-1.1,2.9c0.5,1.7,1.1,3.4,1.5,5.1c0.9,3.5,1.9,7,2.9,10.5c0.9,3.2,1.9,6.3,2.6,9.6c0.3,1.4,0.4,3.1,1.1,4.4
		c0.7,1.3,2.4,1.6,3.2,0c0.8-1.6,0-3.7-0.4-5.2c-0.5-2-1.1-4-1.7-5.9c1.1-0.3,2.1-0.8,3-1.5c4.1-2.8,6.7-8.1,5-13
		c-0.5-1.3-1.2-2.4-2.1-3.4C154.7,173.2,153.6,172.4,152.4,171.9z M153.5,184.1c-1,2.1-2.5,2.9-4.4,4c-0.1,0.1-0.2,0.1-0.3,0.2
		c-0.7-2.5-1.4-5.1-2.1-7.6c-0.5-1.9-0.9-3.9-1.4-5.9c0.4,0,0.9,0,1.2,0c2.8,0,6,0.4,7.4,3.3c0.4,1,0.6,2,0.5,3
		C154.2,182.2,154,183.2,153.5,184.1L153.5,184.1z M174.1,174.4c-1-2.3-3-8.3-6.5-7.3c-2.4,0.8-2.4,4.1-2.5,6.1
		c-0.2,3.3-0.2,6.5-0.4,9.8s-0.6,6.6-0.8,9.9c-0.2,1.9-1.1,6,0.3,7.7c1.5,1.7,3.1,0.3,3.4-1.4c0.3-1.7,0.1-3.7,0.3-5.5
		c0.1-1.1,0.2-2.2,0.2-3.3c0.8-0.3,1.5-0.8,2.1-1.1c1.8-0.8,3.7-1.4,5.6-2.1l0.6-0.2c1,1.7,1.9,3.4,2.7,5.2c0.7,1.5,1.5,6.3,4.2,5
		c2.2-1,0.4-4.3-0.2-5.8C180.6,185.5,176.7,180.3,174.1,174.4L174.1,174.4z M168.5,185.7c0.2-4.1,0.4-8.3,0.6-12.4
		c1.8,3.2,3.4,6.6,5.2,9.8c0.1,0.1,0.1,0.2,0.2,0.3C172.5,184.1,170.5,184.8,168.5,185.7L168.5,185.7z M202.2,185.9
		c0.8,3.7-0.8,7.8-4.4,9.2c-2.3,0.9-6.9,1.9-9-0.1c-1.1-1-1.1-2.7,0.3-3.4c2-0.9,4.4,0.6,6.4,0.2c5.2-1.1,2.7-6.9-0.2-9
		c-3.8-2.8-9.4-3.2-12-7.7c-2.5-4.5,1.1-9.3,5.5-10.8c1.1-0.4,2.3-0.6,3.5-0.6c1.2,0,2.4,0.2,3.5,0.7c1.4,0.6,4,2.8,2,4.4
		c-1.4,1-3.3-0.9-4.7-1.1c-2.1-0.3-5,0.6-6.2,2.5c-2.1,3.2,3,6,5.3,7.1C196.4,179.2,201.1,180.9,202.2,185.9L202.2,185.9z
		 M218.2,176.4c3.1,3,5.7,7.7,2.8,11.7c-2.4,3.4-7.3,3.8-10.8,1.9c-1.4-0.8-3.9-2.7-2.5-4.5c1.3-1.7,3.5,0.3,4.6,1.1
		c1.6,1,3.6,1.2,5.1-0.2c1.7-1.5,1.1-3.8-0.1-5.4c-1.6-2.2-4-3.7-6.1-5.4c-2.3-1.9-4.7-3.8-6.4-6.3c-1.5-2.1-2.5-4.7-1.2-7.2
		c1.1-2.3,3.6-3.5,5.9-4.3c3.7-1.2,9,0.5,10.5,4.2c0.6,1.4,0.5,3.9-1.6,3.7c-2.1-0.2-2.6-3.2-4.3-4c-2.4-1.2-7.6,0.3-7.1,3.6
		c0.4,2.3,2.9,4,4.5,5.5C213.8,172.6,216.1,174.4,218.2,176.4L218.2,176.4z M292,164.1c-2.9-2-5.8-4-8.6-6c2.3-1.2,5.1-1.9,6.7-4.1
		c1.5-2.2,1.1-5.4-0.3-7.7c-2.7-4.5-8.4-5.8-13.2-4.3c-1.2,0.4-2.5,1.1-2.3,2.6c0,0.4,0.2,0.8,0.5,1.1c0.1,0.8,0.3,1.4,0.4,2
		c0.6,3.4,1.2,6.9,1.9,10.3c0.6,3.1,1.3,6.3,1.7,9.5c0.2,1.6,0,3.3,0.6,4.9c0.6,1.6,2.4,2.6,3.6,0.9c0.9-1.3,0.2-3.3,0-4.7
		c-0.4-2.4-0.8-4.7-1.2-7.1l0.3,0.2c2.9,2,5.8,3.9,8.6,6c1.2,1.1,2.6,1.9,4.1,2.6c1.5,0.6,3.3-0.1,2.6-2
		C296.5,166.3,293.6,165.2,292,164.1L292,164.1z M277.8,145.9l-0.2,0.1C277.7,146,278,145.8,277.8,145.9L277.8,145.9z M280.4,155.3
		c-0.3-1.5-0.5-2.9-0.8-4.4c-0.2-1-0.2-3.3-0.6-5.3c1-0.3,2-0.3,3-0.1c1,0.2,2,0.6,2.8,1.2c1.9,1.3,3.5,3.7,1.4,5.6
		C284.6,153.8,282.2,154.2,280.4,155.3L280.4,155.3z M226.3,151.9c-0.4,0.1-0.7,0.3-1,0.5c-0.3-0.1-0.7-0.1-1,0
		c-2.3,0.8-1.1,3.8-0.7,5.4c0.9,3.5,1.7,7,2.5,10.4c0.8,3.5,1.6,6.8,2.3,10.2c0.3,1.9,0.8,3.7,1.4,5.4c0.6,1.3,1.9,3,3.4,1.8
		c1.4-1.1,0.4-3.3,0-4.7c-0.9-2.6-1.6-5.2-2.2-7.9c2.5-0.3,5.3-2,7.2-3.3c4.6-3.2,8-8.8,3.9-13.9
		C238.5,151.5,231.5,150.2,226.3,151.9z M230.5,168.9l-0.4,0.1c-0.5-2.4-1-4.9-1.6-7.3c-0.2-1-0.4-3.7-1-5.9l0.6-0.2
		c1.5-0.4,3-0.6,4.6-0.4c1.6,0.2,3,0.7,4.4,1.4C244.9,161.2,235.7,167.8,230.5,168.9z M257.1,148.6c-6.9,2.3-10.3,11.8-8.9,18.4
		c1.3,6.7,8.1,11.4,14.8,9.5c5.2-1.5,7.4-6.6,7.7-11.6C271.2,157.2,267,145.5,257.1,148.6z M260.3,173.3c-4.8,0.1-8.5-4.4-8.5-8.9
		c0-4.3,1.8-10.4,6.4-12c3.6-1.3,6.2,1.1,7.6,4.3C267.8,161.7,268.1,173.2,260.3,173.3z M313.1,133c-1.4-1.3-3.9,0-5.4,0.5
		c-2.5,0.8-5.1,1.4-7.6,2.1c-2.5,0.7-5,1.8-7.6,2.1c-0.3,0.1-0.6,0.3-0.9,0.5c-0.2,0.3-0.4,0.6-0.5,0.9c-0.1,0.3-0.1,0.7,0,1
		c0.1,0.3,0.3,0.6,0.5,0.8c1.4,1.3,4.2,0.1,5.7-0.4c0.9-0.3,1.8-0.6,2.7-0.8c0.4,0.7,0.6,1.5,0.7,2.4c0.3,3.5,0.8,7,1.5,10.4
		c0.6,3.3,1.4,6.7,2,10c0.2,1.2,0.5,2.8,1.8,3.3c1.3,0.5,2.3-0.5,2.5-1.7c0.2-1.5-0.4-3.2-0.7-4.6c-0.3-1.8-0.8-3.6-1.2-5.3
		c-0.8-3.4-1.4-6.8-1.7-10.3c-0.1-1.8-0.3-3.5-0.7-5.2c2.2-0.5,4.4-1.1,6.5-1.8C312.2,136.4,314.8,134.8,313.1,133z M294.6,140.5
		c0.1-0.1,0.1-0.2,0.2-0.3S294.6,140.5,294.6,140.5z"/>
	<path class="st1" d="M326.8,309.1c-6.8-2.4-13.8-4.1-21-5.1c-7.2-1-14.4-1.3-21.6-0.9c-3-7.9-5.5-15.9-7.6-24.1
		c15.4-4,30.9-8,46.2-12.2c2.8-0.8,1.6-5.2-1.2-4.4c-15.4,4.2-30.7,8.2-46.1,12.2c-2.5-11-4.1-22.2-4.8-33.4
		c7.7-3.5,14.8-7.8,21.5-13c6.7-5.1,12.8-10.9,18.2-17.4c1.9-2.3-1.3-5.5-3.2-3.2c-5,6-10.6,11.5-16.8,16.3
		c-6.2,4.8-12.8,8.9-19.9,12.4c-0.4-9.7-0.1-19.4,0.9-29c0.3-2.9-4.3-2.9-4.5,0c-1,10.3-1.3,20.7-0.8,31.1c-3.7,1.6-7.5,3-11.3,4.1
		c-9.7,3-19.6,4.6-29.7,4.7c-3.1-9.2-6.6-18.4-10.4-27.4c-1.2-2.7-5.1-0.4-3.9,2.3c3.5,8.2,6.7,16.6,9.6,25.1
		c-10.4-0.2-21.5-1.8-29.7-8.6c-2.3-1.9-5.5,1.4-3.2,3.2c9.3,7.7,21.9,10.4,34.6,10.4c3.6,11,6.5,22.2,8.9,33.6
		c-14.8,3.6-29.7,7.1-44.5,10.5c-2.9,0.7-1.7,5.1,1.2,4.4c14.8-3.4,29.5-6.9,44.2-10.5c1.8,8.9,3.2,17.9,4.3,27
		c-2.4,1.4-4.8,2.8-7,4.4c-8.6,5.9-17.6,13.2-19.4,24c-0.5,2.9,3.9,4.1,4.4,1.2c1.8-11.1,12.3-18.4,21.3-23.9
		c0.4-0.3,0.8-0.5,1.3-0.8c1.8,17.3,2.2,34.6,1.4,51.9c-0.1,2.9,4.4,2.9,4.5,0c0.9-18.2,0.3-36.3-1.6-54.3
		c7.4-3.9,15.1-6.9,23.1-8.9c5.6-1.4,11.4-2.4,17.2-2.9c3.7,9.1,7.9,17.9,12.8,26.4c1.5,2.6,5.4,0.2,4-2.3
		c-4.5-7.9-8.5-16-11.9-24.4c13.6-0.6,26.8,1.4,39.6,5.9C328.4,314.5,329.6,310.1,326.8,309.1z M226.6,252c8.9-0.5,17.7-2,26.3-4.4
		c4.6-1.3,9-2.8,13.4-4.6c0.8,11,2.4,21.8,4.8,32.6c-11.9,3-23.9,6-35.9,9C232.9,273.6,230,262.8,226.6,252z M259.7,307.3
		c-6.7,1.9-13.2,4.4-19.4,7.6c-1.1-8.6-2.4-17.2-4.2-25.7c12-2.9,24-5.9,36-9c2,7.9,4.4,15.7,7.3,23.3
		C272.8,304.1,266.2,305.4,259.7,307.3z"/>
	<g>
		<defs>
			<rect id="SVGID_3_" x="116.6" y="72" width="263.4" height="298.7"/>
		</defs>
		<clipPath id="SVGID_4_">
			<use xlink:href="#SVGID_3_"  style="overflow:visible;"/>
		</clipPath>
		<g class="st4">
			<path class="st5" d="M379.2,358.6c-2.1-16-7.7-45-14.6-78.3L328.4,73.9c-0.1-0.6-0.4-1-0.8-1.3c-0.5-0.3-1-0.4-1.5-0.3
				c-70.6,13.9-192.7,53.3-208.2,58.4c-0.6,0.7-1,1.5-1,2.4c0,1.4,0,2.8,0.1,4.4c0.1,0,0.2,0,0.3,0c1.1-0.2,107.2-18,201.6-46.5
				c5.6,24.4,57.3,250.5,57.3,277.9c0,0.4,0.1,0.8,0.3,1.1c0,0,0,0,0,0c0.6-0.3,1.2-0.6,1.7-1.1c0.3-0.4,0.3-1.6,0.2-3.7
				c0.4-2.1,0.7-4.3,0.8-6.5C379.1,358.7,379.2,358.6,379.2,358.6z M322.2,87.9c-0.1-0.6-0.5-1-1-1.3s-1-0.4-1.6-0.2
				c-75.5,22.9-159.1,39.1-190.4,44.8c34-10.9,133.6-42,195.5-54.5l17.6,100.2C331.9,129.9,323.2,91.9,322.2,87.9z"/>
		</g>
	</g>
</g>
</svg>
