<?xml version="1.0" encoding="utf-8"?>
<!-- Generator: Adobe Illustrator 25.0.0, SVG Export Plug-In . SVG Version: 6.00 Build 0)  -->
<svg version="1.1" id="Calque_1" xmlns="http://www.w3.org/2000/svg" xmlns:xlink="http://www.w3.org/1999/xlink" x="0px" y="0px"
	 viewBox="0 0 500 500" style="enable-background:new 0 0 500 500;" xml:space="preserve">
<style type="text/css">
	.st0{clip-path:url(#SVGID_2_);}
	.st1{fill-rule:evenodd;clip-rule:evenodd;fill:#BF5A36;}
</style>
<g id="_x38_97be9af35">
	<g>
		<defs>
			<rect id="SVGID_1_" x="75.2" y="69.8" width="350" height="359.6"/>
		</defs>
		<clipPath id="SVGID_2_">
			<use xlink:href="#SVGID_1_"  style="overflow:visible;"/>
		</clipPath>
		<g class="st0">
			<path class="st1" d="M86.9,134.8c0,3.2-2.6,5.8-5.8,5.8c-3.2,0-5.8-2.6-5.8-5.8V75.6c0-3.2,2.6-5.8,5.8-5.8h56.7
				c3.2,0,5.8,2.6,5.8,5.8c0,3.2-2.6,5.8-5.8,5.8H86.9V134.8z M259.1,134.8c0,3.2-2.6,5.8-5.8,5.8c-3.2,0-5.8-2.6-5.8-5.8V81.4
				h-50.9c-3.2,0-5.8-2.6-5.8-5.8c0-3.2,2.6-5.8,5.8-5.8h56.7c3.2,0,5.8,2.6,5.8,5.8V134.8z M247.5,188.6c0-3.2,2.6-5.8,5.8-5.8
				c3.2,0,5.8,2.6,5.8,5.8v59.2c0,3.2-2.6,5.8-5.8,5.8h-56.7c-3.2,0-5.8-2.6-5.8-5.8c0-3.2,2.6-5.8,5.8-5.8h50.9V188.6z M75.3,188.6
				c0-3.2,2.6-5.8,5.8-5.8c3.2,0,5.8,2.6,5.8,5.8V242h50.9c3.2,0,5.8,2.6,5.8,5.8c0,3.2-2.6,5.8-5.8,5.8H81.1
				c-3.2,0-5.8-2.6-5.8-5.8V188.6z M108.2,213c5.8-27.3,30-47.8,59-47.8c29,0,53.3,20.5,59.1,47.8c0.3,1.5-0.1,3-1.1,4.2
				c-1,1.2-2.4,1.9-3.9,1.9c-20.4,0-87.8,0-108.2,0c-1.5,0-2.9-0.7-3.9-1.8C108.2,216.1,107.9,214.5,108.2,213z M167.2,158
				c-16.8,0-30.5-13.7-30.5-30.5c0-16.8,13.7-30.5,30.5-30.5c16.8,0,30.5,13.7,30.5,30.5C197.7,144.3,184,158,167.2,158z
				 M420.7,75.6c1,0,1.9,0.4,2.6,1.1c0.7,0.7,1.1,1.6,1.1,2.6V102c0,1-0.4,1.9-1.1,2.6c-0.7,0.7-1.6,1.1-2.6,1.1H296.2
				c-1,0-1.9-0.4-2.6-1.1c-0.7-0.7-1.1-1.6-1.1-2.6V79.2c0-1,0.4-1.9,1.1-2.6c0.7-0.7,1.6-1.1,2.6-1.1H420.7z M404.5,318.6
				c1,0,1.9,0.4,2.6,1.1c0.7,0.7,1.1,1.6,1.1,2.6v20.6c0,1-0.4,1.9-1.1,2.6c-0.7,0.7-1.6,1.1-2.6,1.1h-20.9c-1,0-1.9-0.4-2.6-1.1
				c-0.7-0.7-1.1-1.6-1.1-2.6v-20.6c0-1,0.4-1.9,1.1-2.6c0.7-0.7,1.6-1.1,2.6-1.1H404.5z M404.5,368.3c1,0,1.9,0.4,2.6,1.1
				c0.7,0.7,1.1,1.6,1.1,2.6v20.6c0,1-0.4,1.9-1.1,2.6c-0.7,0.7-1.6,1.1-2.6,1.1h-20.9c-1,0-1.9-0.4-2.6-1.1
				c-0.7-0.7-1.1-1.6-1.1-2.6v-20.6c0-1,0.4-1.9,1.1-2.6c0.7-0.7,1.6-1.1,2.6-1.1H404.5z M93.6,357.3c0,3.2-2.6,5.8-5.8,5.8
				c-3.2,0-5.8-2.6-5.8-5.8l0.2-29.3c0-11.8,5.5-22.9,14.5-31.8c12.7-12.7,32.4-20.9,51.4-20.9c16.3,0,33.8,6.3,46.6,16.6
				c2.5,2,2.9,5.7,0.9,8.2c-2,2.5-5.7,2.9-8.2,0.9c-10.8-8.7-25.6-14-39.3-14c-15.9,0-32.5,6.9-43.2,17.5
				c-6.7,6.6-11.1,14.7-11.1,23.6c0,0,0,0,0,0L93.6,357.3z M197.7,312.3c-1.7-2.7-0.8-6.3,1.9-8c2.7-1.7,6.3-0.8,8,1.9
				c4.1,6.6,6.4,14,6.4,21.8v52.2c0,9.1-1.5,18-4.4,26.3c-1,3-4.3,4.6-7.4,3.6c-3-1-4.6-4.3-3.6-7.4c2.4-7.1,3.8-14.7,3.8-22.6V328
				C202.4,322.3,200.6,317.1,197.7,312.3z M98.7,381.4c-3.2,0-5.8-2.6-5.8-5.8c0-3.2,2.6-5.8,5.8-5.8c2.3,0,4.2-1.9,4.2-4.2v-32.3
				c0-6.6,2-12.8,5.5-18.4c1.7-2.7,5.3-3.5,8-1.8c2.7,1.7,3.5,5.3,1.8,8c-2.3,3.7-3.7,7.8-3.7,12.2v32.3
				C114.5,374.3,107.4,381.4,98.7,381.4z M132.7,308.9c-2.9,1.3-6.3,0.1-7.7-2.8c-1.3-2.9-0.1-6.4,2.8-7.7c6.6-3,13.9-4.8,21.5-4.8
				c24.4,0,44,18.1,44,39.8v11.3c0,0.1,0,0.2,0,0.3l-0.6,10c-0.2,3.2-2.9,5.6-6.1,5.4c-3.2-0.2-5.6-2.9-5.4-6.1l0.6-9.8v-11.1
				c0-15.7-14.7-28.2-32.4-28.2C143.5,305.2,137.8,306.6,132.7,308.9z M181.7,380.2c0-3.2,2.6-5.8,5.8-5.8s5.8,2.6,5.8,5.8
				c0,18.1-7.5,34.6-20,47.3c-2.2,2.3-5.9,2.3-8.2,0.1s-2.3-5.9-0.1-8.2C175.4,408.8,181.7,395.2,181.7,380.2z M113.8,398.7
				c-3.2,0-5.8-2.6-5.8-5.8c0-3.2,2.6-5.8,5.8-5.8c4.5,0,8.5-2.9,8.5-6.9v-45.7c0-12.8,11.4-23.6,25.8-23.6
				c8.3,0,16.5,3.9,21.3,10.2c1.9,2.6,1.4,6.2-1.1,8.1c-2.5,1.9-6.2,1.4-8.1-1.1c-2.7-3.6-7.4-5.6-12.1-5.6c-7.7,0-14.2,5.2-14.2,12
				v45.7C133.9,390.1,124.9,398.7,113.8,398.7z M162.3,343.7c0-3.2,2.6-5.8,5.8-5.8c3.2,0,5.8,2.6,5.8,5.8v36.5
				c0,20.5-12.8,38.5-31.8,47.7c-2.9,1.4-6.3,0.2-7.7-2.7c-1.4-2.9-0.2-6.3,2.7-7.7c14.9-7.2,25.3-21.2,25.3-37.3V343.7z
				 M131.1,412.9c-2.9,1.3-6.3-0.1-7.6-3c-1.3-2.9,0.1-6.4,3-7.6c9.3-4,15.9-12.4,15.9-22.1v-45.7c0-3.2,2.6-5.8,5.8-5.8
				c3.2,0,5.8,2.6,5.8,5.8v45.7C153.9,394.5,144.7,407,131.1,412.9z M304.2,154.2c-3.2,0-5.8-2.6-5.8-5.8s2.6-5.8,5.8-5.8h108.5
				c3.2,0,5.8,2.6,5.8,5.8s-2.6,5.8-5.8,5.8H304.2z M304.2,190.6c-3.2,0-5.8-2.6-5.8-5.8c0-3.2,2.6-5.8,5.8-5.8h108.5
				c3.2,0,5.8,2.6,5.8,5.8c0,3.2-2.6,5.8-5.8,5.8H304.2z M304.2,227c-3.2,0-5.8-2.6-5.8-5.8s2.6-5.8,5.8-5.8h108.5
				c3.2,0,5.8,2.6,5.8,5.8s-2.6,5.8-5.8,5.8H304.2z M304.2,263.4c-3.2,0-5.8-2.6-5.8-5.8c0-3.2,2.6-5.8,5.8-5.8h108.5
				c3.2,0,5.8,2.6,5.8,5.8c0,3.2-2.6,5.8-5.8,5.8H304.2z M241,327.2c-3.2,0-5.8-2.6-5.8-5.8c0-3.2,2.6-5.8,5.8-5.8h108.5
				c3.2,0,5.8,2.6,5.8,5.8c0,3.2-2.6,5.8-5.8,5.8H241z M271.5,349.4c-3.2,0-5.8-2.6-5.8-5.8c0-3.2,2.6-5.8,5.8-5.8h77.9
				c3.2,0,5.8,2.6,5.8,5.8c0,3.2-2.6,5.8-5.8,5.8H271.5z M241,376.9c-3.2,0-5.8-2.6-5.8-5.8c0-3.2,2.6-5.8,5.8-5.8h108.5
				c3.2,0,5.8,2.6,5.8,5.8c0,3.2-2.6,5.8-5.8,5.8H241z M271.5,399.1c-3.2,0-5.8-2.6-5.8-5.8c0-3.2,2.6-5.8,5.8-5.8h77.9
				c3.2,0,5.8,2.6,5.8,5.8c0,3.2-2.6,5.8-5.8,5.8H271.5z"/>
		</g>
	</g>
</g>
</svg>
